<svg width="728" height="274" fill="none" xmlns="http://www.w3.org/2000/svg"><path d="M117.8 103.203v19.8c0 5.6 4.6 10.2 10.2 10.2s10.2-4.6 10.2-10.2v-50.8c0-9.6 7.6-18 17.2-18.2 9.8-.2 18 7.8 18 17.6v73.4c0 5.6 4.6 10.2 10.2 10.2s10.2-4.6 10.2-10.2v-19.8c0-7.8 6.2-14 14-14s14 6.2 14 14v21.2c0 16.2-13.2 29.4-29.4 29.4h-19v38.2h-35v-60.2h-19c-16.2 0-29.4-13.2-29.4-29.4v-21.2c0-7.8 6.2-14 14-14 7.6 0 13.8 6.2 13.8 14z" fill="#C3DBEA"/><path d="M148 63.003v27c0 7.8-6.2 14-14 14s-14-6.2-14-14v-59.2c0-13.2-10.4-24.6-23.6-24.8-13.4-.2-24.4 10.6-24.4 24v90c0 7.8-6.2 14-14 14s-14-6.2-14-14v-27c0-10.4-8.6-19-19-19s-19 8.6-19 19v29c0 22 18 40 40 40h26v51.999h48v-82h26c22 0 40-18 40-40v-29c0-10.4-8.6-19-19-19s-19 8.6-19 19z" fill="#41CEB3"/><path d="M170 76.003v16c0 11-9 20-20 20h-30v-60c0-5.6-4.4-10-10-10s-10 4.4-10 10v139c0 3.8-3.2 7-7 7s-7 3.2-7 7v2c0 3.8 3.2 7 7 7h27v-82h42c13.2 0 24-10.8 24-24v-32c0-4.4-3.6-8-8-8s-8 3.6-8 8z" fill="#11967D"/><path d="M58 134.003c-7.8 0-14-6.2-14-14v-27c0-10.4-8.6-19-19-19s-19 8.6-19 19v29c0 22 18 40 40 40h26v52h48v-82h26c22 0 40-18 40-40v-29.6c0-10.2-8.2-18.4-18.4-18.4h-.4c-10.6 0-19 8.4-19 19v27c0 7.8-6.2 14-14 14" stroke="#444B54" stroke-width="12" stroke-miterlimit="10" stroke-linecap="round" stroke-linejoin="round"/><path d="M120 90.003v-59.2c0-13.2-10.4-24.6-23.6-24.8-13.4-.2-24.4 10.6-24.4 24v90m-40 94h140" stroke="#444B54" stroke-width="12" stroke-miterlimit="10" stroke-linecap="round" stroke-linejoin="round"/><path d="M203 220.003a6 6 0 1 0 0-12 6 6 0 0 0 0 12z" fill="#fff"/><path d="M11 80.003l-5-5 5 5zm175-4h8m-67.4 88.6h-6m-5.2-151.6l5-5-5 5z" stroke="#444B54" stroke-width="12" stroke-miterlimit="10" stroke-linecap="round" stroke-linejoin="round"/><path d="M280.416 208.72c-9.408 0-16.752-2.64-22.032-7.92-5.184-5.376-7.776-12.432-7.776-21.168 0-7.776 1.536-14.592 4.608-20.448 3.072-5.856 7.056-10.368 11.952-13.536 4.896-3.168 10.032-4.752 15.408-4.752 5.28 0 9.36 1.584 12.24 4.752 2.976 3.072 4.464 7.056 4.464 11.952 0 4.032-.912 7.44-2.736 10.224-1.728 2.784-4.032 4.176-6.912 4.176-1.824 0-3.312-.432-4.464-1.296-1.056-.864-1.584-2.064-1.584-3.6 0-.672.096-1.44.288-2.304.192-.864.336-1.488.432-1.872.48-1.44.72-2.784.72-4.032 0-1.248-.336-2.208-1.008-2.88-.576-.672-1.44-1.008-2.592-1.008-2.208 0-4.272 1.008-6.192 3.024-1.92 1.92-3.456 4.56-4.608 7.92-1.152 3.36-1.728 7.056-1.728 11.088 0 11.136 4.848 16.704 14.544 16.704 3.936 0 8.16-1.296 12.672-3.888 4.608-2.688 9.12-6.672 13.536-11.952 1.152-1.344 2.448-2.016 3.888-2.016 1.248 0 2.208.576 2.88 1.728.768 1.152 1.152 2.736 1.152 4.752 0 3.648-.912 6.624-2.736 8.928-4.512 5.568-9.936 9.888-16.272 12.96-6.24 2.976-12.288 4.464-18.144 4.464zm98.952-44.928c1.248 0 2.208.624 2.88 1.872.672 1.248 1.008 2.832 1.008 4.752 0 4.608-1.392 7.344-4.176 8.208-5.76 2.016-12.096 3.168-19.008 3.456-1.824 8.064-5.424 14.544-10.8 19.44-5.376 4.8-11.472 7.2-18.288 7.2-5.76 0-10.704-1.392-14.832-4.176-4.032-2.784-7.104-6.48-9.216-11.088-2.112-4.608-3.168-9.6-3.168-14.976 0-7.296 1.392-13.776 4.176-19.44 2.784-5.76 6.624-10.224 11.52-13.392 4.896-3.264 10.32-4.896 16.272-4.896 7.296 0 13.152 2.544 17.568 7.632 4.512 4.992 7.152 11.184 7.92 18.576 4.512-.288 9.888-1.248 16.128-2.88.768-.192 1.44-.288 2.016-.288zm-47.232 29.664c3.072 0 5.712-1.248 7.92-3.744 2.304-2.496 3.84-6.096 4.608-10.8-2.976-2.016-5.28-4.656-6.912-7.92-1.536-3.264-2.304-6.72-2.304-10.368 0-1.536.144-3.072.432-4.608h-.72c-3.84 0-7.056 1.872-9.648 5.616-2.496 3.648-3.744 8.832-3.744 15.552 0 5.28 1.008 9.312 3.024 12.096 2.112 2.784 4.56 4.176 7.344 4.176zm48.984 15.264c-3.648 0-6.24-1.92-7.776-5.76-1.44-3.84-2.16-9.984-2.16-18.432 0-12.48 1.776-24.336 5.328-35.568.864-2.784 2.256-4.8 4.176-6.048 2.016-1.344 4.8-2.016 8.352-2.016 1.92 0 3.264.24 4.032.72.768.48 1.152 1.392 1.152 2.736 0 1.536-.72 4.992-2.16 10.368-.96 3.84-1.728 7.2-2.304 10.08-.576 2.88-1.056 6.432-1.44 10.656 3.168-8.256 6.72-14.976 10.656-20.16 3.936-5.184 7.776-8.88 11.52-11.088 3.84-2.208 7.344-3.312 10.512-3.312 6.24 0 9.36 3.12 9.36 9.36 0 3.744-1.056 10.512-3.168 20.304-1.824 8.352-2.736 13.872-2.736 16.56 0 3.84 1.392 5.76 4.176 5.76 1.92 0 4.176-1.152 6.768-3.456 2.688-2.4 6.24-6.24 10.656-11.52 1.152-1.344 2.448-2.016 3.888-2.016 1.248 0 2.208.576 2.88 1.728.768 1.152 1.152 2.736 1.152 4.752 0 3.84-.912 6.816-2.736 8.928-4.128 5.088-8.592 9.264-13.392 12.528-4.704 3.264-10.08 4.896-16.128 4.896-4.896 0-8.592-1.392-11.088-4.176-2.496-2.88-3.744-7.008-3.744-12.384 0-2.688.672-7.488 2.016-14.4 1.248-6.048 1.872-10.224 1.872-12.528 0-1.536-.528-2.304-1.584-2.304-1.248 0-3.024 1.632-5.328 4.896-2.208 3.168-4.512 7.392-6.912 12.672-2.304 5.28-4.176 10.848-5.616 16.704-1.056 4.512-2.304 7.584-3.744 9.216-1.344 1.536-3.504 2.304-6.48 2.304zm125.438-32.832c1.248 0 2.208.576 2.88 1.728.768 1.152 1.152 2.736 1.152 4.752 0 3.84-.912 6.816-2.736 8.928-3.552 4.32-8.592 8.304-15.12 11.952-6.432 3.648-13.344 5.472-20.736 5.472-10.08 0-17.904-2.736-23.472-8.208-5.568-5.472-8.352-12.96-8.352-22.464 0-6.624 1.392-12.768 4.176-18.432 2.784-5.76 6.624-10.32 11.52-13.68 4.992-3.36 10.608-5.04 16.848-5.04 5.568 0 10.032 1.68 13.392 5.04 3.36 3.264 5.04 7.728 5.04 13.392 0 6.624-2.4 12.336-7.2 17.136-4.704 4.704-12.72 8.448-24.048 11.232 2.4 4.416 6.96 6.624 13.68 6.624 4.32 0 9.216-1.488 14.688-4.464a49.403 49.403 0 0 0 14.4-11.952c1.152-1.344 2.448-2.016 3.888-2.016zm-36.288-20.88c-3.552 0-6.576 2.064-9.072 6.192-2.4 4.128-3.6 9.12-3.6 14.976v.288c5.664-1.344 10.128-3.36 13.392-6.048 3.264-2.688 4.896-5.808 4.896-9.36 0-1.824-.528-3.264-1.584-4.32-.96-1.152-2.304-1.728-4.032-1.728zm56.1 53.712c-9.408 0-16.752-2.64-22.032-7.92-5.184-5.376-7.776-12.432-7.776-21.168 0-7.776 1.536-14.592 4.608-20.448 3.072-5.856 7.056-10.368 11.952-13.536 4.896-3.168 10.032-4.752 15.408-4.752 5.28 0 9.36 1.584 12.24 4.752 2.976 3.072 4.464 7.056 4.464 11.952 0 4.032-.912 7.44-2.736 10.224-1.728 2.784-4.032 4.176-6.912 4.176-1.824 0-3.312-.432-4.464-1.296-1.056-.864-1.584-2.064-1.584-3.6 0-.672.096-1.44.288-2.304.192-.864.336-1.488.432-1.872.48-1.44.72-2.784.72-4.032 0-1.248-.336-2.208-1.008-2.88-.576-.672-1.44-1.008-2.592-1.008-2.208 0-4.272 1.008-6.192 3.024-1.92 1.92-3.456 4.56-4.608 7.92-1.152 3.36-1.728 7.056-1.728 11.088 0 11.136 4.848 16.704 14.544 16.704 3.936 0 8.16-1.296 12.672-3.888 4.608-2.688 9.12-6.672 13.536-11.952 1.152-1.344 2.448-2.016 3.888-2.016 1.248 0 2.208.576 2.88 1.728.768 1.152 1.152 2.736 1.152 4.752 0 3.648-.912 6.624-2.736 8.928-4.512 5.568-9.936 9.888-16.272 12.96-6.24 2.976-12.288 4.464-18.144 4.464zm90.438-32.832c1.248 0 2.208.576 2.88 1.728.768 1.152 1.152 2.736 1.152 4.752 0 3.84-.912 6.816-2.736 8.928-4.128 5.088-8.64 9.264-13.536 12.528-4.896 3.264-10.512 4.896-16.848 4.896-19.584 0-29.376-13.776-29.376-41.328 0-4.224.144-8.496.432-12.816h-5.616c-2.88 0-4.848-.528-5.904-1.584-.96-1.056-1.44-2.736-1.44-5.04 0-5.376 2.16-8.064 6.48-8.064h8.208c1.632-10.56 4.128-20.208 7.488-28.944 3.36-8.736 7.392-15.696 12.096-20.88 4.8-5.184 9.936-7.776 15.408-7.776 4.032 0 7.2 1.776 9.504 5.328 2.304 3.552 3.456 8.016 3.456 13.392 0 14.88-6.24 27.84-18.72 38.88h16.128c1.536 0 2.64.336 3.312 1.008.672.672 1.008 1.92 1.008 3.744 0 6.624-5.424 9.936-16.272 9.936h-17.568c-.192 4.8-.288 8.544-.288 11.232 0 9.984 1.152 16.992 3.456 21.024 2.4 4.032 6.144 6.048 11.232 6.048 4.128 0 7.776-1.248 10.944-3.744 3.168-2.496 6.912-6.24 11.232-11.232 1.152-1.344 2.448-2.016 3.888-2.016zm-25.2-79.776c-1.44 0-3.072 1.824-4.896 5.472-1.728 3.552-3.408 8.544-5.04 14.976-1.536 6.336-2.832 13.392-3.888 21.168 5.664-4.896 9.888-10.368 12.672-16.416 2.88-6.144 4.32-11.712 4.32-16.704 0-5.664-1.056-8.496-3.168-8.496zm32.196 112.608c-4.32 0-7.872-1.968-10.656-5.904-2.688-4.032-4.032-9.024-4.032-14.976 0-7.2.48-13.776 1.44-19.728.96-6.048 2.544-12.432 4.752-19.152.96-2.88 2.304-4.944 4.032-6.192 1.728-1.248 4.464-1.872 8.208-1.872 2.112 0 3.552.336 4.32 1.008.864.672 1.296 1.68 1.296 3.024 0 .768-.528 3.36-1.584 7.776-.96 3.552-1.728 6.768-2.304 9.648-1.92 10.08-2.88 16.8-2.88 20.16 0 2.016.24 3.456.72 4.32.48.768 1.248 1.152 2.304 1.152 1.44 0 3.216-1.44 5.328-4.32 2.208-2.88 4.512-7.248 6.912-13.104 2.496-5.856 4.896-13.056 7.2-21.6.768-2.88 1.92-4.944 3.456-6.192 1.632-1.248 4.032-1.872 7.2-1.872 2.208 0 3.744.288 4.608.864.864.48 1.296 1.44 1.296 2.88 0 2.4-1.2 8.976-3.6 19.728-2.688 12.288-4.032 19.872-4.032 22.752 0 1.824.384 3.264 1.152 4.32.768.96 1.776 1.44 3.024 1.44 1.92 0 4.176-1.152 6.768-3.456 2.688-2.4 6.24-6.24 10.656-11.52 1.152-1.344 2.448-2.016 3.888-2.016 1.248 0 2.208.576 2.88 1.728.768 1.152 1.152 2.736 1.152 4.752 0 3.84-.912 6.816-2.736 8.928-4.128 5.088-8.592 9.264-13.392 12.528-4.704 3.264-10.08 4.896-16.128 4.896-4.608 0-8.016-1.776-10.224-5.328-2.112-3.552-3.168-8.544-3.168-14.976-1.632 6.528-4.08 11.568-7.344 15.12-3.264 3.456-6.768 5.184-10.512 5.184zm78.61 3.168c-4.992 0-8.832-1.152-11.52-3.456-2.592-2.304-3.888-4.896-3.888-7.776 0-2.496.912-4.656 2.736-6.48 1.824-1.824 4.512-2.736 8.064-2.736 1.248 0 2.688.144 4.32.432l3.888.432a17.762 17.762 0 0 0-1.728-7.056 30.522 30.522 0 0 0-3.744-6.336c-1.536-2.112-2.976-3.936-4.32-5.472-2.976 5.664-5.952 10.368-8.928 14.112a99.269 99.269 0 0 1-9.504 10.656c-1.728 1.728-3.552 2.592-5.472 2.592-1.536 0-2.784-.528-3.744-1.584-.96-1.152-1.44-2.544-1.44-4.176 0-1.92.672-3.696 2.016-5.328l1.872-2.304c5.28-6.528 9.264-11.904 11.952-16.128 1.728-2.784 3.456-6.096 5.184-9.936 1.824-3.84 4.176-9.072 7.056-15.696 1.824-4.224 5.616-6.336 11.376-6.336 2.688 0 4.56.24 5.616.72s1.584 1.248 1.584 2.304c0 .576-.192 1.488-.576 2.736a20.81 20.81 0 0 1-1.584 3.744c-1.728 3.456-2.592 6.384-2.592 8.784 0 1.44.48 3.024 1.44 4.752 1.056 1.728 2.64 3.888 4.752 6.48 3.072 4.032 5.376 7.488 6.912 10.368 1.632 2.784 2.448 5.856 2.448 9.216 0 4.032-.96 7.872-2.88 11.52-1.824 3.552-4.416 6.432-7.776 8.64-3.36 2.208-7.2 3.312-11.52 3.312z" fill="#fff"/></svg>