<svg id="Layer_1" viewBox="0 0 128 128" xmlns="http://www.w3.org/2000/svg"><style>.st4{fill:none;stroke:#444b54;stroke-width:6;stroke-linecap:round;stroke-linejoin:round;stroke-miterlimit:10}</style><path d="M109 109H39c-5.5 0-10-4.5-10-10V29c0-5.5 4.5-10 10-10h70c5.5 0 10 4.5 10 10v70c0 5.5-4.5 10-10 10z" fill="#6e6e8e"/><path d="M89 109H19c-5.5 0-10-4.5-10-10V29c0-5.5 4.5-10 10-10h70c5.5 0 10 4.5 10 10v70c0 5.5-4.5 10-10 10z" fill="#d4d3dd"/><path d="M19 97V31c0-1.1.9-2 2-2h66c1.1 0 2 .9 2 2v66c0 1.1-.9 2-2 2H21c-1.1 0-2-.9-2-2z" fill="#f2f2f4"/><path class="st4" d="M89 19h20c5.5 0 10 4.5 10 10m0 0v70c0 5.5-4.5 10-10 10v5m-20-5v5m-70-5v5"/><circle cx="79" cy="39" r="7" fill="#88a"/><circle cx="79" cy="39" r="3" fill="#444b54"/><path class="st4" d="M104 39h-5V29c0-5.5-4.5-10-10-10H19c-5.5 0-10 4.5-10 10v70c0 5.5 4.5 10 10 10h70c5.5 0 10-4.5 10-10V89h5m-5-39v28"/><ellipse cx="54" cy="64" rx="10" ry="10" transform="rotate(-45.001 54 64)" fill="#fff"/><ellipse class="st4" cx="54" cy="64" rx="10" ry="10" transform="rotate(-45.001 54 64)"/><path class="st4" d="M46.9 56.9l-7-7m21.2 7l7-7m-7 21.2l7 7m-21.2-7l-7 7"/></svg>