<svg id="Layer_1" viewBox="0 0 128 128" xmlns="http://www.w3.org/2000/svg"><style>.st1{fill:#fff}.st4{fill:none;stroke:#444b54;stroke-width:6;stroke-linecap:round;stroke-linejoin:round;stroke-miterlimit:10}.st5{fill:#88e3ff}</style><path class="st1" d="M13.5 102h45v12h-45zm56 0h45v12h-45z"/><path class="st5" d="M109.5 102l-7-47h-5V40c0-2.8-2.2-5-5-5h-4V23c0-1.1-.9-2-2-2h-14c-1.1 0-2 .9-2 2v12h-13V23c0-1.1-.9-2-2-2h-14c-1.1 0-2 .9-2 2v12h-4c-2.8 0-5 2.2-5 5v15h-5l-7 47h5v12h35v-12h-5V55h21v47h5v12h35v-12h-5z"/><path class="st1" d="M20 92c12.3-.1 22.5-30.5 25-71h-3.5c-1.1 0-2 .9-2 2v12h-4c-2.8 0-5 2.2-5 5v15h-5L20 92z"/><path d="M53.5 55h-9v29c0 5.5-4.5 10-10 10h-3.4c-2 0-3.6 1.4-3.9 3.4v.1c-.4 2.4 1.5 4.5 3.9 4.5h17.4v12h10v-12h-5V55zm56 47l-7-47h-5V40c0-2.8-2.2-5-5-5h-6c2.8 0 5 2.2 5 5v15h-17v19.9c10.1-1 18-9.5 18-19.9h1.2l4.1 27.5c.9 6-3.8 11.5-9.9 11.5h-1.4c-2.2 0-4 1.8-4 4s1.8 4 4 4h18v12h10v-12h-5z" fill="#146b8e"/><path class="st4" d="M13.5 102h45v12h-45zm40-47v47h-35l7-47h12m2-32c0-1.1.9-2 2-2h14c1.1 0 2 .9 2 2v12m13 0V23c0-1.1.9-2 2-2h14c1.1 0 2 .9 2 2v12m-58 12v-7c0-2.8 2.2-5 5-5h57c2.8 0 5 2.2 5 5v7m12 55h-35V55h28zm-40 0h45v12h-45z"/><path class="st5" d="M72.5 65h-17c-5.5 0-10-4.5-10-10s4.5-10 10-10h17c5.5 0 10 4.5 10 10s-4.5 10-10 10z"/><path class="st4" d="M72.5 65h-17c-5.5 0-10-4.5-10-10s4.5-10 10-10h17c5.5 0 10 4.5 10 10s-4.5 10-10 10z"/></svg>