<svg id="Layer_1" viewBox="0 0 128 128" xmlns="http://www.w3.org/2000/svg"><style>.st1{fill:#fff}.st6{fill:none;stroke:#444b54;stroke-width:6;stroke-linecap:round;stroke-linejoin:round}</style><path class="st1" d="M64 80l53-70-62 29z"/><path class="st1" d="M117 10L19 30l36 9 9 41 3-37 40 7z"/><path fill="#88e3ff" d="M55 39l62-27-50 31-3 37z"/><path fill="none" stroke="#444b54" stroke-width="6" stroke-linecap="round" stroke-linejoin="round" stroke-miterlimit="10" d="M64 80l3-37 40 7 10-40-98 20 36 9 3.5 11"/><path class="st6" d="M39 57.5l-2.4 1.8"/><path d="M23.4 69.2C15.6 75.7 12.8 81 12.5 95c-.7 33 67.6 10.3 76 8.5 15-3.2 14.5-18.1-4.5-14.6C70 91.5 68.2 115 97.8 115" fill="none" stroke="#444b54" stroke-width="6" stroke-linecap="round" stroke-linejoin="round" stroke-dasharray="6.1978,16.5275"/><path class="st6" d="M106 114.4c1-.1 2-.3 3-.4"/></svg>