<svg id="Layer_1" viewBox="0 0 128 128" xmlns="http://www.w3.org/2000/svg"><style>.st1{fill:#fff}.st4{fill:none;stroke:#444b54;stroke-width:6;stroke-linecap:round;stroke-linejoin:round;stroke-miterlimit:10}</style><path d="M81.5 19H102c2.8 0 5 2.2 5 5v85c0 2.8-2.2 5-5 5H31c-2.8 0-5-2.2-5-5V24c0-2.8 2.2-5 5-5h10.5" fill="#ff5576"/><path class="st1" d="M36 25h61v75H36z"/><path class="st4" d="M81.5 19H102c2.8 0 5 2.2 5 5v85c0 2.8-2.2 5-5 5H31c-2.8 0-5-2.2-5-5V24c0-2.8 2.2-5 5-5h10.5"/><path class="st1" d="M74.5 25.5h-16c-3.9 0-7-3.1-7-7s3.1-7 7-7h16c3.9 0 7 3.1 7 7s-3.1 7-7 7z"/><path class="st4" d="M74.5 25.5h-16c-3.9 0-7-3.1-7-7s3.1-7 7-7h16c3.9 0 7 3.1 7 7s-3.1 7-7 7z"/></svg>